<svg xmlns="http://www.w3.org/2000/svg" viewBox="0 0 512 512">
  <circle cx="256" cy="256" r="186" fill="#1e293b" stroke="#0f172a" stroke-width="8"/>

  <circle cx="144" cy="144" r="58" fill="#cbd5e1" stroke="#334155" stroke-width="3"/>
  <circle cx="256" cy="144" r="58" fill="#cbd5e1" stroke="#334155" stroke-width="3"/>
  <circle cx="368" cy="144" r="58" fill="#cbd5e1" stroke="#334155" stroke-width="3"/>
  <circle cx="144" cy="256" r="58" fill="#cbd5e1" stroke="#334155" stroke-width="3"/>
  <circle cx="256" cy="256" r="58" fill="#cbd5e1" stroke="#334155" stroke-width="3"/>
  <circle cx="368" cy="256" r="58" fill="#cbd5e1" stroke="#334155" stroke-width="3"/>
  <circle cx="144" cy="368" r="58" fill="#cbd5e1" stroke="#334155" stroke-width="3"/>
  <circle cx="256" cy="368" r="58" fill="#cbd5e1" stroke="#334155" stroke-width="3"/>
  <circle cx="368" cy="368" r="58" fill="#cbd5e1" stroke="#334155" stroke-width="3"/>

  <line x1="144" y1="144" x2="144" y2="104" stroke="#0f172a" stroke-width="7" stroke-linecap="round"/>
  <line x1="256" y1="144" x2="286" y2="114" stroke="#0f172a" stroke-width="7" stroke-linecap="round"/>
  <line x1="368" y1="144" x2="388" y2="179" stroke="#0f172a" stroke-width="7" stroke-linecap="round"/>
  <line x1="144" y1="256" x2="114" y2="226" stroke="#0f172a" stroke-width="7" stroke-linecap="round"/>
  <line x1="256" y1="256" x2="256" y2="216" stroke="#0f172a" stroke-width="7" stroke-linecap="round"/>
  <line x1="368" y1="256" x2="408" y2="256" stroke="#0f172a" stroke-width="7" stroke-linecap="round"/>
  <line x1="144" y1="368" x2="124" y2="403" stroke="#0f172a" stroke-width="7" stroke-linecap="round"/>
  <line x1="256" y1="368" x2="216" y2="368" stroke="#0f172a" stroke-width="7" stroke-linecap="round"/>
  <line x1="368" y1="368" x2="398" y2="398" stroke="#0f172a" stroke-width="7" stroke-linecap="round"/>

  <circle cx="144" cy="144" r="4.6" fill="#0f172a"/>
  <circle cx="256" cy="144" r="4.6" fill="#0f172a"/>
  <circle cx="368" cy="144" r="4.6" fill="#0f172a"/>
  <circle cx="144" cy="256" r="4.6" fill="#0f172a"/>
  <circle cx="256" cy="256" r="4.6" fill="#0f172a"/>
  <circle cx="368" cy="256" r="4.6" fill="#0f172a"/>
  <circle cx="144" cy="368" r="4.6" fill="#0f172a"/>
  <circle cx="256" cy="368" r="4.6" fill="#0f172a"/>
  <circle cx="368" cy="368" r="4.6" fill="#0f172a"/>

  <circle cx="200" cy="200" r="12.2" fill="#38bdf8" stroke="#0f172a" stroke-width="2"/>
  <circle cx="312" cy="200" r="12.2" fill="#0ea5e9" stroke="#0f172a" stroke-width="2"/>
  <circle cx="200" cy="312" r="12.2" fill="#0ea5e9" stroke="#0f172a" stroke-width="2"/>
  <circle cx="312" cy="312" r="12.2" fill="#38bdf8" stroke="#0f172a" stroke-width="2"/>
</svg>
